<svg width="32" height="32" viewBox="0 0 32 32" fill="none" xmlns="http://www.w3.org/2000/svg">
<path d="M24.7843 0H7.21569C3.23057 0 0 3.23057 0 7.21569V24.7843C0 28.7694 3.23057 32 7.21569 32H24.7843C28.7694 32 32 28.7694 32 24.7843V7.21569C32 3.23057 28.7694 0 24.7843 0Z" fill="url(#paint0_radial_1562_5372)"/>
<g clip-path="url(#clip0_1562_5372)">
<path d="M19.5516 7.5L13.1583 11.2299C12.718 11.4869 12.4488 11.9557 12.4488 12.4651V24.5H9.68036C8.4757 24.5 7.5 23.5243 7.5 22.3196V9.68036C7.5 8.4757 8.4757 7.5 9.68036 7.5H19.5516Z" fill="white"/>
<path d="M24.5004 9.68036V22.3196C24.5004 23.5239 23.5247 24.5 22.32 24.5H12.4492L18.8429 20.7701C19.2833 20.5156 19.552 20.0439 19.552 19.537V7.5H22.3205C23.5247 7.5 24.5004 8.4757 24.5004 9.68036Z" fill="white"/>
</g>
<defs>
<radialGradient id="paint0_radial_1562_5372" cx="0" cy="0" r="1" gradientUnits="userSpaceOnUse" gradientTransform="translate(16 -0.313727) rotate(90) scale(32.6275 22.4828)">
<stop stop-color="#262626"/>
<stop offset="1"/>
</radialGradient>
<clipPath id="clip0_1562_5372">
<rect width="17" height="17" fill="white" transform="translate(7.5 7.5)"/>
</clipPath>
</defs>
</svg>
